<svg xmlns="http://www.w3.org/2000/svg" xmlns:xlink="http://www.w3.org/1999/xlink" width="500" zoomAndPan="magnify" viewBox="0 0 375 374.999991" height="500" preserveAspectRatio="xMidYMid meet" version="1.0"><defs><clipPath id="id1"><path d="M 138.144531 104.335938 L 237.144531 104.335938 L 237.144531 254 L 138.144531 254 Z M 138.144531 104.335938 " clip-rule="nonzero"/></clipPath></defs><g clip-path="url(#id1)"><path fill="rgb(8.628845%, 15.289307%, 29.019165%)" d="M 187.644531 244.597656 L 228.742188 167.902344 C 229.523438 165.664062 230.101562 163.359375 230.511719 161.015625 C 230.917969 158.644531 231.121094 156.199219 231.121094 153.691406 C 231.121094 141.71875 226.257812 130.863281 218.398438 123.027344 C 210.507812 115.191406 199.652344 110.339844 187.644531 110.339844 C 175.636719 110.339844 164.78125 115.191406 156.890625 123.027344 C 149.03125 130.863281 144.167969 141.71875 144.167969 153.691406 C 144.167969 156.199219 144.371094 158.644531 144.777344 161.015625 C 145.1875 163.359375 145.765625 165.664062 146.546875 167.902344 Z M 187.644531 126.722656 C 195.265625 126.722656 202.136719 129.8125 207.105469 134.796875 C 212.105469 139.75 215.203125 146.601562 215.203125 154.199219 C 215.203125 155.761719 215.066406 157.285156 214.792969 158.8125 C 214.519531 160.339844 214.148438 161.832031 213.636719 163.289062 C 211.730469 168.71875 208.160156 173.363281 203.53125 176.621094 C 199.042969 179.773438 193.5625 181.640625 187.644531 181.640625 C 181.726562 181.640625 176.246094 179.773438 171.757812 176.621094 C 167.128906 173.363281 163.59375 168.71875 161.6875 163.289062 L 161.652344 163.324219 C 161.140625 161.867188 160.769531 160.371094 160.496094 158.8125 C 160.222656 157.285156 160.085938 155.761719 160.085938 154.199219 C 160.085938 146.601562 163.183594 139.75 168.183594 134.796875 C 173.152344 129.8125 180.023438 126.722656 187.644531 126.722656 Z M 202.886719 139.003906 C 198.972656 135.136719 193.597656 132.726562 187.644531 132.726562 C 181.691406 132.726562 176.316406 135.136719 172.402344 139.003906 C 168.523438 142.902344 166.109375 148.261719 166.109375 154.199219 C 166.109375 155.453125 166.210938 156.675781 166.414062 157.828125 C 166.621094 159.015625 166.925781 160.203125 167.300781 161.324219 C 168.796875 165.5625 171.585938 169.191406 175.191406 171.734375 C 178.695312 174.210938 182.984375 175.671875 187.644531 175.671875 C 192.304688 175.671875 196.59375 174.210938 200.097656 171.734375 C 203.703125 169.191406 206.492188 165.5625 207.988281 161.324219 C 208.363281 160.203125 208.667969 159.050781 208.875 157.828125 C 209.078125 156.675781 209.179688 155.453125 209.179688 154.199219 C 209.179688 148.261719 206.765625 142.902344 202.886719 139.003906 Z M 234.152344 170.445312 L 190.296875 252.296875 C 190.027344 252.839844 189.617188 253.28125 189.039062 253.550781 C 187.609375 254.332031 185.773438 253.789062 184.992188 252.328125 L 141.242188 170.652344 C 141.136719 170.445312 141.035156 170.277344 140.96875 170.039062 C 140.050781 167.460938 139.335938 164.75 138.859375 162 C 138.417969 159.253906 138.144531 156.507812 138.144531 153.691406 C 138.144531 140.054688 143.691406 127.742188 152.671875 118.785156 C 161.617188 109.867188 173.96875 104.335938 187.644531 104.335938 C 201.320312 104.335938 213.671875 109.867188 222.617188 118.785156 C 231.597656 127.742188 237.144531 140.054688 237.144531 153.691406 C 237.144531 156.507812 236.871094 159.253906 236.429688 162 C 235.953125 164.75 235.238281 167.460938 234.320312 170.039062 C 234.285156 170.175781 234.21875 170.3125 234.152344 170.445312 Z M 234.152344 170.445312 " fill-opacity="1" fill-rule="nonzero"/></g></svg>