<svg xmlns="http://www.w3.org/2000/svg" xmlns:xlink="http://www.w3.org/1999/xlink" width="1080" zoomAndPan="magnify" viewBox="0 0 810 809.999993" height="1080" preserveAspectRatio="xMidYMid meet" version="1.0"><defs><g/></defs><path fill="rgb(8.628845%, 15.289307%, 29.019165%)" d="M 405 243 C 315.53125 243 243 315.53125 243 405 C 243 494.46875 315.53125 567 405 567 C 494.46875 567 567 494.46875 567 405 C 567 315.53125 494.46875 243 405 243 " fill-opacity="1" fill-rule="nonzero"/><g fill="rgb(81.17981%, 85.879517%, 100%)" fill-opacity="1"><g transform="translate(297.45702, 452.257701)"><g><path d="M 59.796875 2.1875 C 49.828125 2.1875 41.101562 0.148438 33.625 -3.921875 C 26.15625 -7.992188 20.414062 -13.734375 16.40625 -21.140625 C 12.394531 -28.554688 10.390625 -37.25 10.390625 -47.21875 C 10.390625 -57.175781 12.453125 -65.953125 16.578125 -73.546875 C 20.710938 -81.148438 26.515625 -87.015625 33.984375 -91.140625 C 41.460938 -95.273438 50.066406 -97.34375 59.796875 -97.34375 C 70.734375 -97.34375 79.96875 -95.097656 87.5 -90.609375 L 87.5 -69.453125 L 86.765625 -69.453125 C 82.753906 -71.878906 78.410156 -73.703125 73.734375 -74.921875 C 69.054688 -76.140625 64.710938 -76.75 60.703125 -76.75 C 52.316406 -76.75 45.992188 -74.253906 41.734375 -69.265625 C 37.484375 -64.285156 35.359375 -56.9375 35.359375 -47.21875 C 35.359375 -28.007812 43.6875 -18.40625 60.34375 -18.40625 C 64.71875 -18.40625 69.179688 -19.101562 73.734375 -20.5 C 78.296875 -21.90625 82.640625 -23.882812 86.765625 -26.4375 L 87.5 -26.4375 L 87.5 -4.921875 C 79.71875 -0.179688 70.484375 2.1875 59.796875 2.1875 Z M 59.796875 2.1875 "/></g></g></g><g fill="rgb(81.17981%, 85.879517%, 100%)" fill-opacity="1"><g transform="translate(395.890956, 452.257701)"><g><path d="M 66.359375 -97.34375 C 74.253906 -97.34375 81.207031 -95.273438 87.21875 -91.140625 C 93.238281 -87.015625 97.953125 -81.148438 101.359375 -73.546875 C 104.765625 -65.953125 106.46875 -57.175781 106.46875 -47.21875 C 106.46875 -31.78125 102.484375 -19.71875 94.515625 -11.03125 C 86.554688 -2.34375 75.710938 2 61.984375 2 C 57.972656 2 54.203125 1.570312 50.671875 0.71875 C 47.148438 -0.125 43.140625 -1.640625 38.640625 -3.828125 L 38.640625 0 L 14.578125 0 L 14.578125 -137.453125 L 38.640625 -137.453125 L 38.640625 -85.859375 C 46.296875 -93.515625 55.535156 -97.34375 66.359375 -97.34375 Z M 59.609375 -18.234375 C 67.140625 -18.234375 72.609375 -20.539062 76.015625 -25.15625 C 79.421875 -29.769531 81.125 -37.242188 81.125 -47.578125 C 81.125 -57.421875 79.722656 -64.710938 76.921875 -69.453125 C 74.128906 -74.191406 69.753906 -76.5625 63.796875 -76.5625 C 55.296875 -76.5625 46.910156 -72.671875 38.640625 -64.890625 L 38.640625 -20.421875 C 41.921875 -19.441406 45.140625 -18.832031 48.296875 -18.59375 C 51.460938 -18.351562 55.234375 -18.234375 59.609375 -18.234375 Z M 59.609375 -18.234375 "/></g></g></g></svg>