<svg xmlns="http://www.w3.org/2000/svg" xmlns:xlink="http://www.w3.org/1999/xlink" width="500" zoomAndPan="magnify" viewBox="0 0 375 374.999991" height="500" preserveAspectRatio="xMidYMid meet" version="1.0"><defs><clipPath id="id1"><path d="M 112.5 133.96875 L 262.5 133.96875 L 262.5 241.21875 L 112.5 241.21875 Z M 112.5 133.96875 " clip-rule="nonzero"/></clipPath></defs><g clip-path="url(#id1)"><path fill="rgb(8.628845%, 15.289307%, 29.019165%)" d="M 258.695312 139.8125 C 257.945312 138.90625 257.109375 138.085938 256.179688 137.363281 C 255.25 136.636719 254.253906 136.023438 253.191406 135.519531 C 252.125 135.011719 251.019531 134.628906 249.871094 134.367188 C 248.722656 134.105469 247.5625 133.972656 246.382812 133.96875 L 128.617188 133.96875 C 128.089844 133.96875 127.566406 133.996094 127.042969 134.046875 C 126.519531 134.097656 126 134.175781 125.484375 134.277344 C 124.964844 134.378906 124.457031 134.507812 123.953125 134.660156 C 123.449219 134.8125 122.957031 134.992188 122.46875 135.191406 C 121.984375 135.394531 121.507812 135.621094 121.046875 135.867188 C 120.582031 136.117188 120.128906 136.386719 119.695312 136.679688 C 119.257812 136.972656 118.835938 137.285156 118.425781 137.621094 C 118.019531 137.953125 117.632812 138.308594 117.261719 138.679688 C 116.886719 139.054688 116.535156 139.441406 116.203125 139.851562 C 115.867188 140.257812 115.554688 140.679688 115.261719 141.117188 C 114.96875 141.554688 114.699219 142.007812 114.453125 142.472656 C 114.203125 142.9375 113.980469 143.414062 113.777344 143.898438 C 113.578125 144.386719 113.402344 144.882812 113.246094 145.386719 C 113.09375 145.890625 112.96875 146.402344 112.863281 146.917969 C 112.761719 147.433594 112.683594 147.953125 112.632812 148.480469 C 112.582031 149.003906 112.554688 149.53125 112.554688 150.054688 L 112.554688 225.132812 C 112.554688 225.65625 112.582031 226.183594 112.632812 226.707031 C 112.683594 227.234375 112.761719 227.753906 112.863281 228.269531 C 112.96875 228.785156 113.09375 229.296875 113.246094 229.800781 C 113.402344 230.304688 113.578125 230.800781 113.777344 231.289062 C 113.980469 231.773438 114.203125 232.25 114.453125 232.714844 C 114.699219 233.179688 114.96875 233.632812 115.261719 234.070312 C 115.554688 234.507812 115.867188 234.929688 116.203125 235.335938 C 116.535156 235.746094 116.886719 236.132812 117.261719 236.507812 C 117.632812 236.878906 118.019531 237.234375 118.425781 237.566406 C 118.835938 237.902344 119.257812 238.214844 119.695312 238.507812 C 120.128906 238.800781 120.582031 239.070312 121.046875 239.320312 C 121.507812 239.566406 121.984375 239.792969 122.46875 239.992188 C 122.957031 240.195312 123.449219 240.375 123.953125 240.527344 C 124.457031 240.679688 124.964844 240.808594 125.484375 240.910156 C 126 241.011719 126.519531 241.089844 127.042969 241.140625 C 127.566406 241.191406 128.089844 241.21875 128.617188 241.21875 L 246.382812 241.21875 C 246.910156 241.21875 247.433594 241.191406 247.957031 241.140625 C 248.480469 241.089844 249 241.011719 249.515625 240.910156 C 250.035156 240.808594 250.542969 240.679688 251.046875 240.527344 C 251.550781 240.375 252.042969 240.195312 252.53125 239.992188 C 253.015625 239.792969 253.492188 239.566406 253.953125 239.320312 C 254.417969 239.070312 254.871094 238.800781 255.304688 238.507812 C 255.742188 238.214844 256.164062 237.902344 256.574219 237.566406 C 256.980469 237.234375 257.367188 236.878906 257.738281 236.507812 C 258.113281 236.132812 258.464844 235.746094 258.796875 235.335938 C 259.132812 234.929688 259.445312 234.507812 259.738281 234.070312 C 260.03125 233.632812 260.300781 233.179688 260.546875 232.714844 C 260.796875 232.25 261.019531 231.773438 261.222656 231.289062 C 261.421875 230.800781 261.597656 230.304688 261.753906 229.800781 C 261.90625 229.296875 262.03125 228.785156 262.136719 228.269531 C 262.238281 227.753906 262.316406 227.234375 262.367188 226.707031 C 262.417969 226.183594 262.445312 225.65625 262.445312 225.132812 L 262.445312 150.054688 C 262.433594 148.183594 262.105469 146.367188 261.464844 144.605469 C 260.820312 142.847656 259.898438 141.25 258.695312 139.8125 Z M 241.726562 144.695312 L 187.5 181.105469 L 133.648438 144.695312 Z M 246.382812 230.492188 L 128.617188 230.492188 C 128.265625 230.492188 127.917969 230.460938 127.570312 230.390625 C 127.226562 230.320312 126.890625 230.21875 126.566406 230.085938 C 126.242188 229.949219 125.933594 229.785156 125.640625 229.589844 C 125.347656 229.394531 125.078125 229.171875 124.832031 228.921875 C 124.582031 228.675781 124.359375 228.402344 124.164062 228.109375 C 123.96875 227.816406 123.804688 227.507812 123.671875 227.183594 C 123.535156 226.859375 123.433594 226.523438 123.367188 226.175781 C 123.296875 225.832031 123.261719 225.484375 123.261719 225.132812 L 123.261719 150.59375 L 184.714844 192.042969 C 185.558594 192.613281 186.484375 192.917969 187.5 192.957031 C 188.59375 192.957031 189.589844 192.65625 190.496094 192.042969 L 251.738281 150.859375 L 251.738281 225.132812 C 251.738281 225.484375 251.703125 225.832031 251.632812 226.175781 C 251.566406 226.523438 251.464844 226.859375 251.328125 227.183594 C 251.195312 227.507812 251.03125 227.816406 250.835938 228.109375 C 250.640625 228.402344 250.417969 228.675781 250.167969 228.921875 C 249.921875 229.171875 249.652344 229.394531 249.359375 229.589844 C 249.066406 229.785156 248.757812 229.949219 248.433594 230.085938 C 248.109375 230.21875 247.773438 230.320312 247.429688 230.390625 C 247.082031 230.460938 246.734375 230.492188 246.382812 230.492188 Z M 246.382812 230.492188 " fill-opacity="1" fill-rule="nonzero"/></g></svg>