<svg xmlns="http://www.w3.org/2000/svg" xmlns:xlink="http://www.w3.org/1999/xlink" width="500" zoomAndPan="magnify" viewBox="0 0 375 374.999991" height="500" preserveAspectRatio="xMidYMid meet" version="1.0"><defs><clipPath id="id1"><path d="M 112.5 112.5 L 262.5 112.5 L 262.5 262.5 L 112.5 262.5 Z M 112.5 112.5 " clip-rule="nonzero"/></clipPath></defs><g clip-path="url(#id1)"><path fill="rgb(8.628845%, 15.289307%, 29.019165%)" d="M 187.585938 112.5 C 146.292969 112.5 112.675781 146.085938 112.660156 187.382812 C 112.652344 200.582031 116.109375 213.46875 122.664062 224.824219 L 112.5 262.5 L 151.742188 253.226562 C 162.6875 259.199219 175.003906 262.332031 187.542969 262.339844 L 187.574219 262.339844 C 228.859375 262.339844 262.460938 228.742188 262.484375 187.457031 C 262.5 167.4375 254.714844 148.617188 240.570312 134.457031 C 226.425781 120.304688 207.628906 112.507812 187.585938 112.5 Z M 187.574219 127.5 C 203.59375 127.507812 218.648438 133.753906 229.964844 145.0625 C 241.285156 156.386719 247.5 171.4375 247.484375 187.441406 C 247.46875 220.472656 220.605469 247.339844 187.558594 247.339844 C 177.5625 247.332031 167.65625 244.820312 158.933594 240.058594 L 153.882812 237.304688 L 148.300781 238.621094 L 133.535156 242.109375 L 137.136719 228.71875 L 138.765625 222.714844 L 135.660156 217.324219 C 130.425781 208.265625 127.652344 197.90625 127.660156 187.382812 C 127.675781 154.367188 154.550781 127.5 187.574219 127.5 Z M 161.074219 152.8125 C 159.820312 152.8125 157.796875 153.28125 156.078125 155.15625 C 154.363281 157.023438 149.515625 161.546875 149.515625 170.757812 C 149.515625 179.96875 156.226562 188.871094 157.164062 190.121094 C 158.09375 191.367188 170.113281 210.863281 189.140625 218.363281 C 204.949219 224.597656 208.160156 223.367188 211.597656 223.050781 C 215.03125 222.746094 222.679688 218.53125 224.238281 214.160156 C 225.796875 209.789062 225.800781 206.027344 225.335938 205.253906 C 224.871094 204.472656 223.621094 204.007812 221.746094 203.070312 C 219.878906 202.132812 210.675781 197.613281 208.960938 196.992188 C 207.242188 196.371094 205.984375 196.054688 204.742188 197.929688 C 203.496094 199.804688 199.917969 204.007812 198.824219 205.253906 C 197.726562 206.507812 196.640625 206.675781 194.765625 205.738281 C 192.890625 204.792969 186.863281 202.808594 179.707031 196.433594 C 174.140625 191.476562 170.386719 185.359375 169.292969 183.484375 C 168.203125 181.617188 169.1875 180.59375 170.125 179.664062 C 170.96875 178.824219 171.988281 177.476562 172.925781 176.382812 C 173.855469 175.285156 174.175781 174.507812 174.800781 173.261719 C 175.421875 172.015625 175.105469 170.917969 174.636719 169.980469 C 174.171875 169.042969 170.53125 159.796875 168.867188 156.09375 C 167.464844 152.980469 165.984375 152.910156 164.648438 152.855469 C 163.5625 152.8125 162.320312 152.8125 161.074219 152.8125 Z M 161.074219 152.8125 " fill-opacity="1" fill-rule="nonzero"/></g></svg>