<svg xmlns="http://www.w3.org/2000/svg" xmlns:xlink="http://www.w3.org/1999/xlink" width="500" zoomAndPan="magnify" viewBox="0 0 375 374.999991" height="500" preserveAspectRatio="xMidYMid meet" version="1.0"><defs><clipPath id="id1"><path d="M 112.5 112.5 L 262.5 112.5 L 262.5 262.5 L 112.5 262.5 Z M 112.5 112.5 " clip-rule="nonzero"/></clipPath></defs><path fill="rgb(8.628845%, 15.289307%, 29.019165%)" d="M 227.503906 233.234375 L 227.535156 233.234375 Z M 149.714844 147.445312 C 148.839844 147.445312 148.015625 147.835938 147.136719 148.605469 C 147.035156 148.703125 145.605469 150.058594 144.671875 150.949219 L 143.832031 151.742188 C 139.15625 156.113281 137.042969 164.003906 138.445312 171.851562 C 138.898438 174.410156 139.636719 177.066406 140.628906 179.738281 C 145.667969 193.269531 155.253906 205.054688 162.402344 212.554688 C 169.523438 220.109375 180.777344 230.308594 194.023438 236.066406 C 196.644531 237.203125 199.253906 238.082031 201.777344 238.671875 C 209.542969 240.496094 217.535156 238.804688 222.144531 234.371094 L 223.332031 233.246094 C 224.203125 232.417969 225.285156 231.398438 225.484375 231.207031 C 228.121094 228.484375 226.679688 226.105469 221.039062 220.367188 L 219.566406 218.855469 C 215.886719 215.035156 209.75 208.660156 204.644531 209.242188 C 203.332031 209.394531 201.875 210.414062 200.335938 211.492188 C 198.792969 212.5625 197.050781 213.78125 195.011719 214.425781 C 189.566406 216.152344 184.046875 215.023438 179.46875 211.25 C 176.796875 209.046875 174.078125 206.46875 171.605469 203.800781 C 169.117188 201.242188 166.691406 198.386719 164.636719 195.597656 C 161.109375 190.824219 160.277344 185.25 162.289062 179.910156 C 163.042969 177.90625 164.351562 176.230469 165.507812 174.75 C 166.667969 173.265625 167.761719 171.867188 167.984375 170.5625 C 168.855469 165.527344 162.800781 159.035156 159.1875 155.15625 L 157.75 153.597656 C 153.96875 149.460938 151.707031 147.445312 149.714844 147.445312 Z M 208.054688 245.113281 C 205.363281 245.113281 202.777344 244.789062 200.46875 244.25 C 197.613281 243.578125 194.675781 242.59375 191.742188 241.316406 C 177.605469 235.175781 165.722656 224.429688 158.25 216.496094 C 150.738281 208.617188 140.640625 196.179688 135.261719 181.734375 C 134.148438 178.742188 133.320312 175.753906 132.808594 172.859375 C 131.425781 165.128906 132.570312 154.425781 139.921875 147.558594 L 140.726562 146.792969 C 141.730469 145.839844 143.28125 144.371094 143.34375 144.316406 C 150.925781 137.648438 157.582031 144.921875 161.976562 149.730469 L 163.378906 151.25 C 167.71875 155.910156 174.980469 163.703125 173.628906 171.539062 C 173.15625 174.261719 171.492188 176.390625 170.023438 178.277344 C 169.03125 179.542969 168.09375 180.742188 167.648438 181.929688 C 166.324219 185.441406 166.878906 188.992188 169.242188 192.199219 C 171.148438 194.78125 173.40625 197.433594 175.761719 199.863281 C 178.109375 202.394531 180.636719 204.789062 183.113281 206.832031 C 186.183594 209.363281 189.703125 210.101562 193.28125 208.96875 C 194.488281 208.589844 195.734375 207.714844 197.058594 206.792969 C 199.011719 205.429688 201.234375 203.878906 203.976562 203.554688 C 211.875 202.640625 219.269531 210.292969 223.691406 214.882812 L 225.125 216.355469 C 229.695312 221.003906 236.597656 228.027344 229.554688 235.234375 C 229.546875 235.246094 229.539062 235.253906 229.527344 235.257812 C 229.476562 235.3125 228.25 236.476562 227.269531 237.40625 L 226.113281 238.5 C 221.050781 243.367188 214.28125 245.113281 208.054688 245.113281 " fill-opacity="1" fill-rule="nonzero"/><path fill="rgb(8.628845%, 15.289307%, 29.019165%)" d="M 212.136719 194.925781 C 210.636719 194.925781 209.375 193.753906 209.285156 192.230469 C 208.902344 185.847656 206.277344 179.777344 201.886719 175.144531 C 197.496094 170.511719 191.574219 167.5625 185.21875 166.84375 C 183.648438 166.667969 182.519531 165.246094 182.695312 163.675781 C 182.875 162.105469 184.285156 160.984375 185.867188 161.152344 C 193.558594 162.023438 200.726562 165.597656 206.042969 171.207031 C 211.359375 176.816406 214.542969 184.164062 214.996094 191.890625 C 215.09375 193.46875 213.890625 194.824219 212.3125 194.917969 C 212.253906 194.921875 212.195312 194.925781 212.136719 194.925781 " fill-opacity="1" fill-rule="nonzero"/><path fill="rgb(8.628845%, 15.289307%, 29.019165%)" d="M 230.167969 197.648438 C 228.664062 197.648438 227.402344 196.476562 227.3125 194.957031 C 226.625 183.324219 221.835938 172.269531 213.832031 163.824219 C 205.828125 155.378906 195.039062 150.003906 183.464844 148.695312 C 181.890625 148.519531 180.761719 147.101562 180.941406 145.527344 C 181.117188 143.957031 182.542969 142.820312 184.109375 143.003906 C 197.023438 144.464844 209.054688 150.460938 217.988281 159.882812 C 226.917969 169.304688 232.261719 181.640625 233.027344 194.617188 C 233.121094 196.195312 231.917969 197.550781 230.339844 197.644531 C 230.28125 197.648438 230.222656 197.648438 230.167969 197.648438 " fill-opacity="1" fill-rule="nonzero"/><g clip-path="url(#id1)"><path fill="rgb(8.628845%, 15.289307%, 29.019165%)" d="M 187.5 118.214844 C 149.300781 118.214844 118.222656 149.292969 118.222656 187.488281 C 118.222656 225.695312 149.300781 256.773438 187.5 256.773438 C 225.699219 256.773438 256.777344 225.695312 256.777344 187.488281 C 256.777344 149.292969 225.699219 118.214844 187.5 118.214844 Z M 187.5 262.5 C 146.140625 262.5 112.492188 228.851562 112.492188 187.488281 C 112.492188 146.132812 146.140625 112.488281 187.5 112.488281 C 228.859375 112.488281 262.507812 146.132812 262.507812 187.488281 C 262.507812 228.851562 228.859375 262.5 187.5 262.5 " fill-opacity="1" fill-rule="nonzero"/></g></svg>